<svg version="1.1" id="Layer_1" xmlns="http://www.w3.org/2000/svg" xmlns:xlink="http://www.w3.org/1999/xlink" x="0px" y="0px"
	 height="60px" width="60px" viewBox="0 0 419 379" enable-background="new 0 0 419 379" xml:space="preserve">
<path fill="#EDEEF2" opacity="1.000000" stroke="none" 
	d="
M253.000000,380.000000 
	C168.666672,380.000000 84.833336,380.000000 1.000000,380.000000 
	C1.000000,253.666672 1.000000,127.333336 1.000000,1.000000 
	C140.666672,1.000000 280.333344,1.000000 420.000000,1.000000 
	C420.000000,127.333336 420.000000,253.666672 420.000000,380.000000 
	C364.500000,380.000000 309.000000,380.000000 253.000000,380.000000 
M260.990173,194.199219 
	C259.351532,194.195969 257.712921,194.192734 255.337555,194.074249 
	C253.376785,194.881012 251.416016,195.687775 250.123062,196.219757 
	C248.367569,195.313568 246.934875,194.223740 245.352570,193.924225 
	C244.690872,193.798965 242.997696,195.340363 242.984802,196.143448 
	C242.820557,206.380646 242.876556,216.621384 242.876556,226.895813 
	C245.322174,226.895813 247.039108,226.895813 249.075958,226.895813 
	C249.075958,220.674500 249.050873,214.863480 249.082520,209.052780 
	C249.119217,202.315979 250.496231,200.600555 257.649963,199.323730 
	C258.962433,199.203857 260.279877,199.123077 261.586609,198.957764 
	C269.962189,197.898270 270.742615,198.559540 270.742950,206.787964 
	C270.743225,213.531464 270.743011,220.274948 270.743011,226.920959 
	C276.798889,227.417267 276.847961,227.417526 276.872803,222.709076 
	C276.913696,214.951660 276.883911,207.193863 276.883911,199.385040 
	C281.669098,199.385040 285.735657,199.385040 290.276398,199.385040 
	C290.276398,207.337570 290.448792,214.969376 290.211548,222.588440 
	C290.070068,227.131897 291.817871,228.241638 296.379242,226.624161 
	C296.379242,211.771454 296.426422,196.829941 296.246490,181.891159 
	C296.237030,181.105392 294.124390,179.568253 293.304474,179.755341 
	C292.144348,180.020020 290.531281,181.489532 290.420410,182.577408 
	C290.056580,186.147293 290.283691,189.777405 290.283691,193.364410 
	C285.451904,193.364410 281.380920,193.364410 277.365143,193.364410 
	C276.544312,186.369873 277.161835,185.719269 283.679260,184.791840 
	C284.863220,184.623367 285.852173,183.084534 286.931152,182.178329 
	C285.810822,181.301620 284.756744,179.775009 283.559479,179.652939 
	C275.374084,178.818390 271.405762,182.282715 270.740356,190.432449 
	C270.663116,191.378540 270.431702,192.312042 270.281219,193.195923 
	C267.093506,193.747818 264.208374,194.247314 261.305786,194.786209 
	C261.305786,194.786209 261.271332,194.768539 260.990173,194.199219 
M95.224777,238.417465 
	C95.407280,238.713409 95.671059,238.882736 96.277809,239.547043 
	C101.444206,243.090179 106.184326,247.686752 111.855782,249.981766 
	C129.914566,257.289398 149.089279,257.994446 168.301514,257.713684 
	C168.521515,257.710480 168.735352,257.283936 169.579086,256.392578 
	C156.667480,243.832382 143.744629,231.261246 131.095032,218.106277 
	C137.043533,211.731537 142.992050,205.356796 149.530624,198.663147 
	C155.553467,193.655487 159.808609,187.469070 162.417969,180.052505 
	C168.535431,162.664993 169.038132,144.558807 169.479187,126.439285 
	C169.496155,125.741882 168.935425,125.030418 169.115662,125.466217 
	C156.168945,137.778351 143.085159,150.220840 129.355774,162.301468 
	C123.199745,156.589264 117.043716,150.877045 110.560837,144.581802 
	C103.888992,136.061996 94.927643,130.768845 84.543579,129.141235 
	C69.488312,126.781464 54.235973,125.672333 39.059723,124.107002 
	C38.095417,124.007530 37.062504,124.573257 37.332077,124.504242 
	C49.574150,137.436417 61.984726,150.546585 74.046852,164.182922 
	C68.082832,170.491272 62.118816,176.799622 56.071011,183.092270 
	C56.071011,183.092270 56.082088,183.176804 55.626076,183.276550 
	C55.334007,183.454178 55.183552,183.713852 54.584713,184.384491 
	C46.638947,191.175247 41.917175,200.072693 40.432465,210.088821 
	C38.221642,225.003464 37.178654,240.092072 35.711391,255.113754 
	C35.630547,255.941422 36.213737,256.833954 36.487843,257.696320 
	C36.145233,257.204803 35.802620,256.713318 35.460007,256.221802 
	C48.668285,243.903244 61.876560,231.584686 75.720917,219.621262 
	C82.169342,225.714279 88.617767,231.807297 95.032448,237.979340 
	C95.032448,237.979340 95.112045,237.946991 95.224777,238.417465 
M383.816620,204.484055 
	C384.772156,201.190033 385.727722,197.896011 386.700226,194.543533 
	C382.826935,192.968323 380.912445,193.769516 379.924683,197.426651 
	C378.080231,204.255478 375.914154,210.997391 373.585602,218.763718 
	C371.118408,211.066650 369.118134,204.377213 366.765808,197.813950 
	C366.201782,196.240341 364.467224,195.086288 363.271057,193.739273 
	C361.920441,195.106476 359.934570,196.240143 359.330994,197.881958 
	C356.934143,204.401794 354.969025,211.080383 352.519104,218.712112 
	C350.194885,210.997238 348.046997,204.358337 346.225616,197.631012 
	C345.196411,193.829468 343.301208,192.829742 339.310913,194.629852 
	C342.256805,204.290497 345.034058,213.838730 348.172363,223.266800 
	C348.711029,224.885071 350.765900,227.012878 352.160736,227.043076 
	C353.521271,227.072571 355.586151,224.968872 356.207214,223.362885 
	C358.571198,217.249908 360.476410,210.959503 362.553101,204.735397 
	C365.679443,211.098083 367.629944,217.532364 370.001984,223.807297 
	C370.551880,225.261978 372.544006,227.085220 373.865631,227.079742 
	C375.211456,227.074142 377.251831,225.272522 377.767426,223.823074 
	C379.940308,217.715042 381.657166,211.444794 383.816620,204.484055 
M216.775269,213.563065 
	C213.263458,204.405853 209.672668,195.277695 206.288635,186.073502 
	C205.292679,183.364624 203.924088,182.110519 200.876617,182.099075 
	C197.692673,182.087112 196.643738,183.713943 195.668640,186.312714 
	C191.230392,198.141327 186.600479,209.897888 182.088120,221.698959 
	C181.476334,223.298996 181.139511,225.004150 180.675354,226.660614 
	C181.156860,227.132919 181.638367,227.605225 182.119873,228.077515 
	C183.974655,226.861313 187.112320,225.933289 187.461472,224.378891 
	C188.950775,217.748978 192.953064,216.122635 198.989517,217.006256 
	C200.781631,217.268585 202.688568,217.303284 204.466827,216.998474 
	C209.753006,216.092407 212.914474,217.927887 213.942947,223.378372 
	C214.707596,227.430847 217.256866,228.230255 221.518265,226.483963 
	C219.987335,222.308243 218.518005,218.300568 216.775269,213.563065 
M326.778870,194.452164 
	C312.736237,190.237076 304.216888,196.631775 304.465515,211.222031 
	C304.490967,212.716156 304.583099,214.218689 304.782837,215.698608 
	C305.624756,221.935669 309.082794,226.165634 314.756927,227.384903 
	C321.267273,228.783890 327.460632,228.352417 331.901917,222.479553 
	C337.707092,214.803146 335.359314,200.509354 326.778870,194.452164 
M227.191284,212.491913 
	C227.191452,215.820404 227.166489,219.149109 227.197586,222.477310 
	C227.246613,227.725052 227.688248,228.017303 233.489929,226.357117 
	C233.489929,216.537033 233.575745,206.576599 233.356033,196.622910 
	C233.334259,195.637375 231.150986,193.730988 230.486206,193.934570 
	C229.196075,194.329666 227.430267,195.859070 227.344055,197.027863 
	C226.989975,201.828186 227.193192,206.669601 227.191284,212.491913 
M274.975250,160.282532 
	C273.749695,155.269470 271.104065,153.251022 267.158051,154.318604 
	C263.427734,155.327820 261.517883,159.833328 262.982452,164.169220 
	C264.169067,167.682175 267.872284,169.421570 271.514069,167.774353 
	C272.633057,167.268234 273.198395,165.538025 274.017273,164.368347 
	C270.725922,162.321259 275.172333,162.311569 274.975250,160.282532 
M227.825485,167.704254 
	C228.798950,167.408508 230.606003,167.140533 230.616943,166.812698 
	C230.726471,163.527359 231.122818,160.051239 230.180542,157.019836 
	C229.741760,155.608246 226.570007,154.393677 224.591003,154.319534 
	C223.004242,154.260117 221.347992,156.056061 219.722595,157.028641 
	C219.988113,157.347137 220.253647,157.665634 220.519165,157.984131 
	C222.867050,157.688507 225.214935,157.392883 227.562820,157.097260 
	C227.649460,157.687103 227.736099,158.276947 227.822739,158.866806 
	C225.820847,159.383148 223.594620,159.522476 221.889297,160.537231 
	C220.567612,161.323685 219.040604,163.294861 219.175629,164.573563 
	C219.313370,165.878143 221.184189,167.403107 222.641968,168.038864 
	C223.834259,168.558823 225.535126,167.912613 227.825485,167.704254 
M199.381302,165.922699 
	C200.265381,166.633591 201.149445,167.344467 202.033524,168.055359 
	C202.370087,167.756210 202.706650,167.457047 203.043228,167.157898 
	C201.059631,161.915482 199.208878,156.614532 196.951767,151.492645 
	C196.606186,150.708420 193.284927,150.268372 193.191483,150.481354 
	C190.741135,156.067245 188.535217,161.760345 186.287369,167.435059 
	C186.740143,167.768646 187.192932,168.102219 187.645721,168.435806 
	C190.802383,164.572098 194.246353,161.959381 199.381302,165.922699 
M210.563400,168.169586 
	C216.032059,167.728027 217.995132,165.215469 217.238846,159.625687 
	C216.527252,154.366180 214.208099,153.503876 205.385788,155.119095 
	C205.385788,160.994278 205.385788,166.822800 205.385788,172.604599 
	C206.213577,172.604599 206.756241,172.716751 206.822693,172.586319 
	C207.241119,171.764893 207.439819,170.815811 207.933655,170.052963 
	C208.421753,169.298950 209.172653,168.715073 210.563400,168.169586 
M249.411163,149.682175 
	C248.908691,154.889130 248.345917,160.091644 247.960754,165.307266 
	C247.893539,166.217560 248.574112,167.183044 248.916901,168.144348 
	C249.755539,167.816589 250.301727,167.729156 250.320450,167.576859 
	C250.599091,165.310959 250.502014,162.945724 251.139908,160.795670 
	C251.571030,159.342453 253.014053,158.189438 254.004471,156.902161 
	C255.046310,158.117081 256.507416,159.180878 257.014832,160.588440 
	C257.547455,162.066025 256.989807,163.901443 257.251282,165.525330 
	C257.404510,166.476944 258.226501,167.320847 259.237793,169.052505 
	C261.795624,157.234436 260.118744,154.370667 251.499954,153.966843 
	C251.053970,152.583450 250.614410,151.219971 249.411163,149.682175 
M236.992569,164.257843 
	C237.037842,162.180237 237.083115,160.102646 237.128387,158.025040 
	C239.790482,158.218613 242.452591,158.412186 245.543076,158.636917 
	C244.438904,154.733566 241.619431,153.633560 238.056152,154.266434 
	C233.858475,155.011948 233.199127,158.380005 233.341187,161.904633 
	C233.493149,165.674881 235.062698,168.268814 239.375763,168.257599 
	C242.741943,168.248825 244.892975,167.037750 245.454407,163.249725 
	C242.445419,163.904800 240.014587,164.434006 236.992569,164.257843 
M226.796692,185.173462 
	C227.054443,189.095978 230.101669,187.897400 232.021194,187.542450 
	C232.885391,187.382690 233.992004,185.003571 233.814621,183.805252 
	C233.659439,182.756989 231.984695,181.451416 230.760315,181.146423 
	C228.383041,180.554260 226.395950,181.233505 226.796692,185.173462 
z"/>
<path fill="#E33B24" opacity="1.000000" stroke="none" 
	d="
M74.395309,163.656769 
	C61.984726,150.546585 49.574150,137.436417 37.332077,124.504242 
	C37.062504,124.573257 38.095417,124.007530 39.059723,124.107002 
	C54.235973,125.672333 69.488312,126.781464 84.543579,129.141235 
	C94.927643,130.768845 103.888992,136.061996 110.718887,145.291016 
	C111.268646,148.774200 111.787376,151.537109 112.030106,154.324036 
	C113.091026,166.505249 108.769814,177.429871 103.612854,188.193314 
	C102.540123,188.105484 101.825439,188.055527 100.938622,187.692993 
	C96.603806,179.001511 91.762611,171.112656 84.002861,165.529221 
	C81.174911,163.494400 78.129303,161.527939 74.395309,163.656769 
z"/>
<path fill="#02AE48" opacity="1.000000" stroke="none" 
	d="
M130.821762,218.690125 
	C143.744629,231.261246 156.667480,243.832382 169.579086,256.392578 
	C168.735352,257.283936 168.521515,257.710480 168.301514,257.713684 
	C149.089279,257.994446 129.914566,257.289398 111.855782,249.981766 
	C106.184326,247.686752 101.444206,243.090179 96.056808,239.023331 
	C95.661583,238.227646 95.420326,238.043442 95.112045,237.946991 
	C95.112045,237.946991 95.032448,237.979340 95.029594,237.545349 
	C94.349831,233.546448 93.301826,230.006073 93.064262,226.412125 
	C92.293159,214.746719 96.843704,204.303665 101.420258,193.845947 
	C102.518257,193.877167 103.250839,193.874969 104.121674,194.199951 
	C108.208649,200.462372 111.722656,206.757751 116.245506,212.217392 
	C119.777382,216.480820 124.162155,220.632080 130.821762,218.690125 
z"/>
<path fill="#047EED" opacity="1.000000" stroke="none" 
	d="
M75.084824,219.266129 
	C61.876560,231.584686 48.668285,243.903244 35.460007,256.221802 
	C35.802620,256.713318 36.145233,257.204803 36.487843,257.696320 
	C36.213737,256.833954 35.630547,255.941422 35.711391,255.113754 
	C37.178654,240.092072 38.221642,225.003464 40.432465,210.088821 
	C41.917175,200.072693 46.638947,191.175247 55.079048,184.129013 
	C55.827389,183.702942 55.996960,183.470703 56.082088,183.176804 
	C56.082088,183.176804 56.071011,183.092270 56.520119,183.086044 
	C67.365990,179.673080 77.489883,181.542526 87.515114,184.742767 
	C91.745209,186.093094 95.906662,187.658463 100.019073,189.420135 
	C99.844849,190.688049 99.750877,191.661896 99.274445,192.757462 
	C92.740143,197.051910 86.147835,200.720322 80.590698,205.573959 
	C76.861649,208.830948 72.366371,212.905853 75.084824,219.266129 
z"/>
<path fill="#04C7D4" opacity="1.000000" stroke="none" 
	d="
M130.001373,162.663330 
	C143.085159,150.220840 156.168945,137.778351 169.115662,125.466217 
	C168.935425,125.030418 169.496155,125.741882 169.479187,126.439285 
	C169.038132,144.558807 168.535431,162.664993 162.417969,180.052505 
	C159.808609,187.469070 155.553467,193.655487 148.826309,198.823822 
	C135.002472,202.766586 122.691208,200.060364 110.687202,194.458939 
	C108.933769,193.640732 106.878777,193.468765 105.054123,192.697052 
	C105.366447,191.408768 105.587959,190.421173 106.158813,189.286667 
	C115.185852,184.802109 123.445915,179.789062 128.647583,171.326767 
	C130.059647,169.029541 129.601273,165.582596 130.001373,162.663330 
z"/>
<path fill="#595857" opacity="1.000000" stroke="none" 
	d="
M261.323242,194.746811 
	C264.208374,194.247314 267.093506,193.747818 270.281219,193.195923 
	C270.431702,192.312042 270.663116,191.378540 270.740356,190.432449 
	C271.405762,182.282715 275.374084,178.818390 283.559479,179.652939 
	C284.756744,179.775009 285.810822,181.301620 286.931152,182.178329 
	C285.852173,183.084534 284.863220,184.623367 283.679260,184.791840 
	C277.161835,185.719269 276.544312,186.369873 277.365143,193.364410 
	C281.380920,193.364410 285.451904,193.364410 290.283691,193.364410 
	C290.283691,189.777405 290.056580,186.147293 290.420410,182.577408 
	C290.531281,181.489532 292.144348,180.020020 293.304474,179.755341 
	C294.124390,179.568253 296.237030,181.105392 296.246490,181.891159 
	C296.426422,196.829941 296.379242,211.771454 296.379242,226.624161 
	C291.817871,228.241638 290.070068,227.131897 290.211548,222.588440 
	C290.448792,214.969376 290.276398,207.337570 290.276398,199.385040 
	C285.735657,199.385040 281.669098,199.385040 276.883911,199.385040 
	C276.883911,207.193863 276.913696,214.951660 276.872803,222.709076 
	C276.847961,227.417526 276.798889,227.417267 270.743011,226.920959 
	C270.743011,220.274948 270.743225,213.531464 270.742950,206.787964 
	C270.742615,198.559540 269.962189,197.898270 261.586609,198.957764 
	C260.279877,199.123077 258.962433,199.203857 257.558044,198.917603 
	C258.751801,197.256592 260.037506,196.001694 261.323242,194.746811 
z"/>
<path fill="#5A5A59" opacity="1.000000" stroke="none" 
	d="
M383.678741,204.858978 
	C381.657166,211.444794 379.940308,217.715042 377.767426,223.823074 
	C377.251831,225.272522 375.211456,227.074142 373.865631,227.079742 
	C372.544006,227.085220 370.551880,225.261978 370.001984,223.807297 
	C367.629944,217.532364 365.679443,211.098083 362.553101,204.735397 
	C360.476410,210.959503 358.571198,217.249908 356.207214,223.362885 
	C355.586151,224.968872 353.521271,227.072571 352.160736,227.043076 
	C350.765900,227.012878 348.711029,224.885071 348.172363,223.266800 
	C345.034058,213.838730 342.256805,204.290497 339.310913,194.629852 
	C343.301208,192.829742 345.196411,193.829468 346.225616,197.631012 
	C348.046997,204.358337 350.194885,210.997238 352.519104,218.712112 
	C354.969025,211.080383 356.934143,204.401794 359.330994,197.881958 
	C359.934570,196.240143 361.920441,195.106476 363.271057,193.739273 
	C364.467224,195.086288 366.201782,196.240341 366.765808,197.813950 
	C369.118134,204.377213 371.118408,211.066650 373.585602,218.763718 
	C375.914154,210.997391 378.080231,204.255478 379.924683,197.426651 
	C380.912445,193.769516 382.826935,192.968323 386.700226,194.543533 
	C385.727722,197.896011 384.772156,201.190033 383.678741,204.858978 
z"/>
<path fill="#5B5A59" opacity="1.000000" stroke="none" 
	d="
M216.911972,213.927979 
	C218.518005,218.300568 219.987335,222.308243 221.518265,226.483963 
	C217.256866,228.230255 214.707596,227.430847 213.942947,223.378372 
	C212.914474,217.927887 209.753006,216.092407 204.466827,216.998474 
	C202.688568,217.303284 200.781631,217.268585 198.989517,217.006256 
	C192.953064,216.122635 188.950775,217.748978 187.461472,224.378891 
	C187.112320,225.933289 183.974655,226.861313 182.119873,228.077515 
	C181.638367,227.605225 181.156860,227.132919 180.675354,226.660614 
	C181.139511,225.004150 181.476334,223.298996 182.088120,221.698959 
	C186.600479,209.897888 191.230392,198.141327 195.668640,186.312714 
	C196.643738,183.713943 197.692673,182.087112 200.876617,182.099075 
	C203.924088,182.110519 205.292679,183.364624 206.288635,186.073502 
	C209.672668,195.277695 213.263458,204.405853 216.911972,213.927979 
M200.517120,211.397507 
	C203.262787,211.397507 206.008453,211.397507 209.581039,211.397507 
	C206.628799,203.665359 204.035583,196.873489 200.965347,188.832275 
	C197.871536,197.035721 195.316528,203.810516 192.455063,211.397873 
	C195.343292,211.397873 197.452698,211.397873 200.517120,211.397507 
z"/>
<path fill="#5B5A5A" opacity="1.000000" stroke="none" 
	d="
M327.119751,194.626450 
	C335.359314,200.509354 337.707092,214.803146 331.901917,222.479553 
	C327.460632,228.352417 321.267273,228.783890 314.756927,227.384903 
	C309.082794,226.165634 305.624756,221.935669 304.782837,215.698608 
	C304.583099,214.218689 304.490967,212.716156 304.465515,211.222031 
	C304.216888,196.631775 312.736237,190.237076 327.119751,194.626450 
M320.321991,222.931549 
	C325.513794,222.404648 327.998016,219.251801 328.292267,214.314087 
	C328.469055,211.347733 328.516052,208.302521 328.047607,205.384872 
	C327.268219,200.530899 323.964996,198.031250 319.336945,198.223251 
	C314.625397,198.418716 311.634552,201.060623 311.023621,205.930984 
	C310.714478,208.395355 310.736145,210.926636 310.860931,213.414993 
	C311.172760,219.633026 313.164032,221.748520 320.321991,222.931549 
z"/>
<path fill="#11B4FC" opacity="1.000000" stroke="none" 
	d="
M100.099327,189.126068 
	C95.906662,187.658463 91.745209,186.093094 87.515114,184.742767 
	C77.489883,181.542526 67.365990,179.673080 56.562016,183.093903 
	C62.118816,176.799622 68.082832,170.491272 74.221085,163.919830 
	C78.129303,161.527939 81.174911,163.494400 84.002861,165.529221 
	C91.762611,171.112656 96.603806,179.001511 100.785843,187.896088 
	C100.569916,188.649857 100.334618,188.887970 100.099327,189.126068 
z"/>
<path fill="#06D45C" opacity="1.000000" stroke="none" 
	d="
M75.402863,219.443695 
	C72.366371,212.905853 76.861649,208.830948 80.590698,205.573959 
	C86.147835,200.720322 92.740143,197.051910 99.461807,192.884247 
	C100.372704,193.197067 100.713768,193.504791 101.054840,193.812531 
	C96.843704,204.303665 92.293159,214.746719 93.064262,226.412125 
	C93.301826,230.006073 94.349831,233.546448 95.046463,237.505829 
	C88.617767,231.807297 82.169342,225.714279 75.402863,219.443695 
z"/>
<path fill="#FB7659" opacity="1.000000" stroke="none" 
	d="
M129.678574,162.482391 
	C129.601273,165.582596 130.059647,169.029541 128.647583,171.326767 
	C123.445915,179.789062 115.185852,184.802109 105.920174,189.149368 
	C104.878433,188.849731 104.424675,188.540451 103.970909,188.231186 
	C108.769814,177.429871 113.091026,166.505249 112.030106,154.324036 
	C111.787376,151.537109 111.268646,148.774200 110.882309,145.582550 
	C117.043716,150.877045 123.199745,156.589264 129.678574,162.482391 
z"/>
<path fill="#11E0EC" opacity="1.000000" stroke="none" 
	d="
M104.963310,192.997772 
	C106.878777,193.468765 108.933769,193.640732 110.687202,194.458939 
	C122.691208,200.060364 135.002472,202.766586 148.531281,198.983276 
	C142.992050,205.356796 137.043533,211.731537 130.958405,218.398193 
	C124.162155,220.632080 119.777382,216.480820 116.245506,212.217392 
	C111.722656,206.757751 108.208649,200.462372 104.271294,194.039520 
	C104.468414,193.316711 104.695297,193.132004 104.963310,192.997772 
z"/>
<path fill="#565555" opacity="1.000000" stroke="none" 
	d="
M261.314514,194.766510 
	C260.037506,196.001694 258.751801,197.256592 257.218689,198.785477 
	C250.496231,200.600555 249.119217,202.315979 249.082520,209.052780 
	C249.050873,214.863480 249.075958,220.674500 249.075958,226.895813 
	C247.039108,226.895813 245.322174,226.895813 242.876556,226.895813 
	C242.876556,216.621384 242.820557,206.380646 242.984802,196.143448 
	C242.997696,195.340363 244.690872,193.798965 245.352570,193.924225 
	C246.934875,194.223740 248.367569,195.313568 250.123062,196.219757 
	C251.416016,195.687775 253.376785,194.881012 255.996689,194.371033 
	C258.194336,194.701385 259.732819,194.734955 261.271332,194.768539 
	C261.271332,194.768539 261.305786,194.786209 261.314514,194.766510 
z"/>
<path fill="#595857" opacity="1.000000" stroke="none" 
	d="
M227.191345,211.993912 
	C227.193192,206.669601 226.989975,201.828186 227.344055,197.027863 
	C227.430267,195.859070 229.196075,194.329666 230.486206,193.934570 
	C231.150986,193.730988 233.334259,195.637375 233.356033,196.622910 
	C233.575745,206.576599 233.489929,216.537033 233.489929,226.357117 
	C227.688248,228.017303 227.246613,227.725052 227.197586,222.477310 
	C227.166489,219.149109 227.191452,215.820404 227.191345,211.993912 
z"/>
<path fill="#676767" opacity="1.000000" stroke="none" 
	d="
M274.932251,160.669556 
	C275.172333,162.311569 270.725922,162.321259 274.017273,164.368347 
	C273.198395,165.538025 272.633057,167.268234 271.514069,167.774353 
	C267.872284,169.421570 264.169067,167.682175 262.982452,164.169220 
	C261.517883,159.833328 263.427734,155.327820 267.158051,154.318604 
	C271.104065,153.251022 273.749695,155.269470 274.932251,160.669556 
M267.869537,162.313797 
	C267.382050,162.931290 266.894562,163.548782 266.407074,164.166290 
	C267.506744,164.641891 268.589264,165.407257 269.713104,165.473618 
	C270.294861,165.507950 270.949768,164.303284 271.571655,163.658386 
	C270.673889,163.204834 269.776123,162.751297 267.869537,162.313797 
z"/>
<path fill="#6B6B6B" opacity="1.000000" stroke="none" 
	d="
M227.417999,167.743835 
	C225.535126,167.912613 223.834259,168.558823 222.641968,168.038864 
	C221.184189,167.403107 219.313370,165.878143 219.175629,164.573563 
	C219.040604,163.294861 220.567612,161.323685 221.889297,160.537231 
	C223.594620,159.522476 225.820847,159.383148 227.822739,158.866806 
	C227.736099,158.276947 227.649460,157.687103 227.562820,157.097260 
	C225.214935,157.392883 222.867050,157.688507 220.519165,157.984131 
	C220.253647,157.665634 219.988113,157.347137 219.722595,157.028641 
	C221.347992,156.056061 223.004242,154.260117 224.591003,154.319534 
	C226.570007,154.393677 229.741760,155.608246 230.180542,157.019836 
	C231.122818,160.051239 230.726471,163.527359 230.616943,166.812698 
	C230.606003,167.140533 228.798950,167.408508 227.417999,167.743835 
z"/>
<path fill="#646363" opacity="1.000000" stroke="none" 
	d="
M199.206787,165.556122 
	C194.246353,161.959381 190.802383,164.572098 187.645721,168.435806 
	C187.192932,168.102219 186.740143,167.768646 186.287369,167.435059 
	C188.535217,161.760345 190.741135,156.067245 193.191483,150.481354 
	C193.284927,150.268372 196.606186,150.708420 196.951767,151.492645 
	C199.208878,156.614532 201.059631,161.915482 203.043228,167.157898 
	C202.706650,167.457047 202.370087,167.756210 202.033524,168.055359 
	C201.149445,167.344467 200.265381,166.633591 199.206787,165.556122 
M192.284805,159.903198 
	C193.773773,160.408264 195.262756,160.913345 196.751724,161.418411 
	C196.979477,160.999817 197.207214,160.581223 197.434967,160.162628 
	C196.625458,158.219711 195.815948,156.276779 194.639938,153.454208 
	C193.629044,156.076889 193.038406,157.609222 192.284805,159.903198 
z"/>
<path fill="#646363" opacity="1.000000" stroke="none" 
	d="
M210.185852,168.113083 
	C209.172653,168.715073 208.421753,169.298950 207.933655,170.052963 
	C207.439819,170.815811 207.241119,171.764893 206.822693,172.586319 
	C206.756241,172.716751 206.213577,172.604599 205.385788,172.604599 
	C205.385788,166.822800 205.385788,160.994278 205.385788,155.119095 
	C214.208099,153.503876 216.527252,154.366180 217.238846,159.625687 
	C217.995132,165.215469 216.032059,167.728027 210.185852,168.113083 
M209.230560,165.091095 
	C212.424133,166.725525 214.234406,165.271545 214.052002,162.174072 
	C213.943985,160.340073 212.461014,157.241089 211.261658,157.071014 
	C207.739334,156.571564 207.823029,159.678574 207.929657,162.193893 
	C207.962677,162.972610 208.408997,163.733795 209.230560,165.091095 
z"/>
<path fill="#656464" opacity="1.000000" stroke="none" 
	d="
M249.792999,149.769318 
	C250.614410,151.219971 251.053970,152.583450 251.499954,153.966843 
	C260.118744,154.370667 261.795624,157.234436 259.237793,169.052505 
	C258.226501,167.320847 257.404510,166.476944 257.251282,165.525330 
	C256.989807,163.901443 257.547455,162.066025 257.014832,160.588440 
	C256.507416,159.180878 255.046310,158.117081 254.004456,156.902161 
	C253.014053,158.189438 251.571030,159.342453 251.139908,160.795670 
	C250.502014,162.945724 250.599091,165.310959 250.320450,167.576859 
	C250.301727,167.729156 249.755539,167.816589 248.916901,168.144348 
	C248.574112,167.183044 247.893539,166.217560 247.960754,165.307266 
	C248.345917,160.091644 248.908691,154.889130 249.792999,149.769318 
z"/>
<path fill="#676767" opacity="1.000000" stroke="none" 
	d="
M237.288177,164.610535 
	C240.014587,164.434006 242.445419,163.904800 245.454407,163.249725 
	C244.892975,167.037750 242.741943,168.248825 239.375763,168.257599 
	C235.062698,168.268814 233.493149,165.674881 233.341187,161.904633 
	C233.199127,158.380005 233.858475,155.011948 238.056152,154.266434 
	C241.619431,153.633560 244.438904,154.733566 245.543076,158.636917 
	C242.452591,158.412186 239.790482,158.218613 237.128387,158.025040 
	C237.083115,160.102646 237.037842,162.180237 237.288177,164.610535 
z"/>
<path fill="#5B5A5A" opacity="1.000000" stroke="none" 
	d="
M226.789734,184.788681 
	C226.395950,181.233505 228.383041,180.554260 230.760315,181.146423 
	C231.984695,181.451416 233.659439,182.756989 233.814621,183.805252 
	C233.992004,185.003571 232.885391,187.382690 232.021194,187.542450 
	C230.101669,187.897400 227.054443,189.095978 226.789734,184.788681 
z"/>
<path fill="#595857" opacity="1.000000" stroke="none" 
	d="
M261.130737,194.483887 
	C259.732819,194.734955 258.194336,194.701385 256.365051,194.428650 
	C257.712921,194.192734 259.351532,194.195969 261.130737,194.483887 
z"/>
<path fill="#11B4FC" opacity="1.000000" stroke="none" 
	d="
M55.854080,183.226685 
	C55.996960,183.470703 55.827389,183.702942 55.374046,183.964554 
	C55.183552,183.713852 55.334007,183.454178 55.854080,183.226685 
z"/>
<path fill="#06D45C" opacity="1.000000" stroke="none" 
	d="
M95.168411,238.182220 
	C95.420326,238.043442 95.661583,238.227646 95.925964,238.712524 
	C95.671059,238.882736 95.407280,238.713409 95.168411,238.182220 
z"/>
<path fill="#595857" opacity="1.000000" stroke="none" 
	d="
M105.054123,192.697067 
	C104.695297,193.132004 104.468414,193.316711 104.133041,193.712357 
	C103.250839,193.874969 102.518257,193.877167 101.420258,193.845947 
	C100.713768,193.504791 100.372704,193.197067 99.844269,192.762543 
	C99.750877,191.661896 99.844849,190.688049 100.019073,189.420135 
	C100.334618,188.887970 100.569916,188.649857 100.957993,188.208664 
	C101.825439,188.055527 102.540123,188.105484 103.612854,188.193314 
	C104.424675,188.540451 104.878433,188.849731 105.570831,189.296295 
	C105.587959,190.421173 105.366447,191.408768 105.054123,192.697067 
z"/>
<path fill="#E7E8EC" opacity="1.000000" stroke="none" 
	d="
M200.039612,211.397690 
	C197.452698,211.397873 195.343292,211.397873 192.455063,211.397873 
	C195.316528,203.810516 197.871536,197.035721 200.965347,188.832275 
	C204.035583,196.873489 206.628799,203.665359 209.581039,211.397507 
	C206.008453,211.397507 203.262787,211.397507 200.039612,211.397690 
z"/>
<path fill="#E7E8EC" opacity="1.000000" stroke="none" 
	d="
M319.925415,222.938568 
	C313.164032,221.748520 311.172760,219.633026 310.860931,213.414993 
	C310.736145,210.926636 310.714478,208.395355 311.023621,205.930984 
	C311.634552,201.060623 314.625397,198.418716 319.336945,198.223251 
	C323.964996,198.031250 327.268219,200.530899 328.047607,205.384872 
	C328.516052,208.302521 328.469055,211.347733 328.292267,214.314087 
	C327.998016,219.251801 325.513794,222.404648 319.925415,222.938568 
z"/>
<path fill="#EDEEF2" opacity="1.000000" stroke="none" 
	d="
M268.373962,162.305771 
	C269.776123,162.751297 270.673889,163.204834 271.571655,163.658386 
	C270.949768,164.303284 270.294861,165.507950 269.713104,165.473618 
	C268.589264,165.407257 267.506744,164.641891 266.407043,164.166290 
	C266.894562,163.548782 267.382050,162.931290 268.373962,162.305771 
z"/>
<path fill="#D6D7DA" opacity="1.000000" stroke="none" 
	d="
M192.366302,159.522369 
	C193.038406,157.609222 193.629044,156.076889 194.639938,153.454208 
	C195.815948,156.276779 196.625458,158.219711 197.434967,160.162628 
	C197.207214,160.581223 196.979477,160.999817 196.751724,161.418411 
	C195.262756,160.913345 193.773773,160.408264 192.366302,159.522369 
z"/>
<path fill="#E1E2E5" opacity="1.000000" stroke="none" 
	d="
M208.948334,164.797058 
	C208.408997,163.733795 207.962677,162.972610 207.929657,162.193893 
	C207.823029,159.678574 207.739334,156.571564 211.261658,157.071014 
	C212.461014,157.241089 213.943985,160.340073 214.052002,162.174072 
	C214.234406,165.271545 212.424133,166.725525 208.948334,164.797058 
z"/>
</svg>